<svg width="19" height="19" viewBox="0 0 19 19" fill="none" xmlns="http://www.w3.org/2000/svg">
<mask id="mask0_5_11" style="mask-type:luminance" maskUnits="userSpaceOnUse" x="0" y="0" width="19" height="19">
<path d="M0 0H19V19H0V0Z" fill="white"/>
</mask>
<g mask="url(#mask0_5_11)">
<path d="M13.0625 11.875C16.343 11.875 19 9.21797 19 5.9375C19 5.36971 18.9184 4.82051 18.7699 4.29728C18.6549 3.89649 18.1613 3.80743 17.8682 4.10058L15.0182 6.95058C14.9068 7.06192 14.7547 7.125 14.5988 7.125H12.4688C12.1422 7.125 11.875 6.85783 11.875 6.53123V4.40116C11.875 4.24533 11.9381 4.09315 12.0494 3.98185L14.8994 1.13185C15.1926 0.83866 15.0998 0.345109 14.7027 0.230073C14.1795 0.081631 13.6303 0 13.0625 0C9.78203 0 7.125 2.65703 7.125 5.9375C7.125 6.6463 7.25116 7.32909 7.47754 7.95996L0.738478 14.699C0.267174 15.1703 0 15.8123 0 16.4803C0 17.8719 1.12812 19 2.51971 19C3.18768 19 3.82967 18.7328 4.30098 18.2615L11.04 11.5225C11.6709 11.7525 12.3537 11.875 13.0625 11.875ZM2.96877 15.1406C3.20495 15.1406 3.4315 15.2345 3.59853 15.4015C3.76556 15.5685 3.85938 15.795 3.85938 16.0312C3.85938 16.2675 3.76556 16.494 3.59853 16.661C3.4315 16.828 3.20495 16.9219 2.96877 16.9219C2.73255 16.9219 2.506 16.828 2.33897 16.661C2.17194 16.494 2.07812 16.2675 2.07812 16.0312C2.07812 15.795 2.17194 15.5685 2.33897 15.4015C2.506 15.2345 2.73255 15.1406 2.96877 15.1406Z" fill="white"/>
</g>
</svg>
